<svg width="250" height="150" viewBox="0 0 250 150" fill="none" xmlns="http://www.w3.org/2000/svg">
<path d="M53 117C62.9411 117 71 98.6437 71 76C71 53.3563 62.9411 35 53 35C43.0589 35 35 53.3563 35 76C35 98.6437 43.0589 117 53 117Z" stroke="#2563EB" stroke-width="5"/>
<path d="M13 62H93M13 90H93" stroke="#2563EB" stroke-width="5" stroke-linecap="round" stroke-linejoin="round"/>
<path d="M137.736 63.696L130.76 87.376H127.016L121.704 68.816L116.36 87.376H112.552L105.672 63.696H109.416L114.536 82.32L119.88 63.696H123.656L128.936 82.224L134.152 63.696H137.736ZM154.406 79.984H143.622C143.686 81.52 144.102 82.7147 144.87 83.568C145.66 84.4853 146.748 84.944 148.134 84.944C150.054 84.944 151.75 84.528 153.222 83.696V86.928C151.516 87.568 149.788 87.888 148.038 87.888C145.286 87.888 143.238 87.0133 141.894 85.264C140.721 83.7067 140.134 81.5307 140.134 78.736C140.134 76.048 140.785 73.8613 142.086 72.176C143.388 70.4907 145.137 69.648 147.334 69.648C149.788 69.648 151.622 70.5227 152.838 72.272C153.884 73.7653 154.406 75.7387 154.406 78.192V79.984ZM150.918 76.944C150.918 75.7493 150.609 74.7467 149.99 73.936C149.35 73.0827 148.508 72.656 147.462 72.656C146.396 72.656 145.489 73.0933 144.742 73.968C143.996 74.8427 143.622 75.8347 143.622 76.944H150.918ZM165.956 72.336C164.612 72.336 163.566 72.9973 162.82 74.32C162.201 75.4507 161.892 76.8587 161.892 78.544C161.892 80.1867 162.212 81.584 162.852 82.736C163.577 84.0373 164.612 84.688 165.956 84.688C168.708 84.688 170.084 82.6613 170.084 78.608C170.084 74.4267 168.708 72.336 165.956 72.336ZM161.892 61.904V71.312C163.193 69.9467 164.665 69.264 166.308 69.264C168.761 69.264 170.606 70.1707 171.844 71.984C172.953 73.5627 173.508 75.7707 173.508 78.608C173.508 81.36 172.91 83.5573 171.716 85.2C170.393 86.928 168.59 87.792 166.308 87.792C164.366 87.792 162.894 87.1627 161.892 85.904V87.376H158.66V61.904H161.892ZM181.33 87.504H177.906V69.584H181.33V87.504ZM181.33 66.512H177.906V62.512H181.33V66.512ZM189.515 87.376H186.027V61.904H189.515V87.376ZM201.387 72.656C199.936 72.656 198.784 73.232 197.931 74.384C197.12 75.5147 196.715 76.976 196.715 78.768C196.715 80.56 197.12 82.0213 197.931 83.152C198.784 84.304 199.936 84.88 201.387 84.88C202.837 84.88 203.979 84.304 204.811 83.152C205.643 82.0427 206.059 80.5813 206.059 78.768C206.059 76.976 205.643 75.5147 204.811 74.384C203.979 73.232 202.837 72.656 201.387 72.656ZM201.387 69.648C204.032 69.648 206.091 70.5973 207.562 72.496C208.885 74.1813 209.547 76.272 209.547 78.768C209.547 81.264 208.885 83.3547 207.562 85.04C206.091 86.9387 204.032 87.888 201.387 87.888C198.72 87.888 196.651 86.9387 195.179 85.04C193.877 83.3973 193.227 81.3067 193.227 78.768C193.227 76.2293 193.877 74.1387 195.179 72.496C196.651 70.5973 198.72 69.648 201.387 69.648ZM237.977 70.064L232.185 87.504H228.729L224.761 74.864L220.665 87.504H217.177L211.513 70.064H215.161L219.033 82.608L223.097 70.064H226.585L230.457 82.608L234.489 70.064H237.977Z" fill="#2563EB"/>
<path d="M53 117C77.3005 117 97 98.6437 97 76C97 53.3563 77.3005 35 53 35C28.6995 35 9 53.3563 9 76C9 98.6437 28.6995 117 53 117Z" stroke="#2563EB" stroke-width="5"/>
</svg>
