<svg width="262" height="150" viewBox="0 0 262 150" fill="none" xmlns="http://www.w3.org/2000/svg">
<path d="M55.544 117C65.9623 117 74.408 98.6437 74.408 76C74.408 53.3563 65.9623 35 55.544 35C45.1257 35 36.68 53.3563 36.68 76C36.68 98.6437 45.1257 117 55.544 117Z" stroke="white" stroke-width="5"/>
<path d="M13.624 62H97.464M13.624 90H97.464" stroke="white" stroke-width="5" stroke-linecap="round" stroke-linejoin="round"/>
<path d="M142.776 63.696L135.8 87.376H132.056L126.744 68.816L121.4 87.376H117.592L110.712 63.696H114.456L119.576 82.32L124.92 63.696H128.696L133.976 82.224L139.192 63.696H142.776ZM159.446 79.984H148.662C148.726 81.52 149.142 82.7147 149.91 83.568C150.7 84.4853 151.788 84.944 153.174 84.944C155.094 84.944 156.79 84.528 158.262 83.696V86.928C156.556 87.568 154.828 87.888 153.078 87.888C150.326 87.888 148.278 87.0133 146.934 85.264C145.761 83.7067 145.174 81.5307 145.174 78.736C145.174 76.048 145.825 73.8613 147.126 72.176C148.428 70.4907 150.177 69.648 152.374 69.648C154.828 69.648 156.662 70.5227 157.878 72.272C158.924 73.7653 159.446 75.7387 159.446 78.192V79.984ZM155.958 76.944C155.958 75.7493 155.649 74.7467 155.03 73.936C154.39 73.0827 153.548 72.656 152.502 72.656C151.436 72.656 150.529 73.0933 149.782 73.968C149.036 74.8427 148.662 75.8347 148.662 76.944H155.958ZM170.996 72.336C169.652 72.336 168.606 72.9973 167.86 74.32C167.241 75.4507 166.932 76.8587 166.932 78.544C166.932 80.1867 167.252 81.584 167.892 82.736C168.617 84.0373 169.652 84.688 170.996 84.688C173.748 84.688 175.124 82.6613 175.124 78.608C175.124 74.4267 173.748 72.336 170.996 72.336ZM166.932 61.904V71.312C168.233 69.9467 169.705 69.264 171.348 69.264C173.801 69.264 175.646 70.1707 176.884 71.984C177.993 73.5627 178.548 75.7707 178.548 78.608C178.548 81.36 177.95 83.5573 176.756 85.2C175.433 86.928 173.63 87.792 171.348 87.792C169.406 87.792 167.934 87.1627 166.932 85.904V87.376H163.7V61.904H166.932ZM186.37 87.504H182.946V69.584H186.37V87.504ZM186.37 66.512H182.946V62.512H186.37V66.512ZM194.555 87.376H191.067V61.904H194.555V87.376ZM206.427 72.656C204.976 72.656 203.824 73.232 202.971 74.384C202.16 75.5147 201.755 76.976 201.755 78.768C201.755 80.56 202.16 82.0213 202.971 83.152C203.824 84.304 204.976 84.88 206.427 84.88C207.877 84.88 209.019 84.304 209.851 83.152C210.683 82.0427 211.099 80.5813 211.099 78.768C211.099 76.976 210.683 75.5147 209.851 74.384C209.019 73.232 207.877 72.656 206.427 72.656ZM206.427 69.648C209.072 69.648 211.131 70.5973 212.603 72.496C213.925 74.1813 214.587 76.272 214.587 78.768C214.587 81.264 213.925 83.3547 212.603 85.04C211.131 86.9387 209.072 87.888 206.427 87.888C203.76 87.888 201.691 86.9387 200.219 85.04C198.917 83.3973 198.267 81.3067 198.267 78.768C198.267 76.2293 198.917 74.1387 200.219 72.496C201.691 70.5973 203.76 69.648 206.427 69.648ZM243.017 70.064L237.225 87.504H233.769L229.801 74.864L225.705 87.504H222.217L216.553 70.064H220.201L224.073 82.608L228.137 70.064H231.625L235.497 82.608L239.529 70.064H243.017Z" fill="white"/>
<path d="M55.544 117C81.011 117 101.656 98.6437 101.656 76C101.656 53.3563 81.011 35 55.544 35C30.0771 35 9.43201 53.3563 9.43201 76C9.43201 98.6437 30.0771 117 55.544 117Z" stroke="white" stroke-width="5"/>
</svg>
