<svg width="250" height="149" viewBox="0 0 250 149" fill="none" xmlns="http://www.w3.org/2000/svg">
<path d="M146.128 69.72L145.72 82.8H146.272L150.448 69.72H155.152L149.224 87H142.024L142.672 75.936L139.456 87H132.256L132.424 69.72H137.128L136.696 82.8H137.248L141.448 69.72H146.128ZM166.504 87H154.456L157.504 69.72H169.552L168.88 73.464H161.152L160.6 76.704H166.984L166.312 80.448H159.928L159.448 83.256H167.176L166.504 87ZM179.277 69.72C181.101 69.72 182.397 70.12 183.165 70.92C183.741 71.528 184.029 72.296 184.029 73.224C184.029 73.544 183.997 73.88 183.933 74.232L183.717 75.384C183.541 76.296 183.197 77.008 182.685 77.52C182.189 78.032 181.749 78.288 181.365 78.288L181.341 78.48C181.789 78.48 182.245 78.728 182.709 79.224C183.173 79.72 183.405 80.304 183.405 80.976C183.405 81.248 183.373 81.536 183.309 81.84L183.165 82.584C182.909 83.96 182.293 85.04 181.317 85.824C180.357 86.608 179.013 87 177.285 87H169.269L172.317 69.72H179.277ZM177.117 79.944H174.837L174.261 83.256H176.541C176.573 83.256 176.605 83.256 176.637 83.256C177.373 83.256 177.957 83.088 178.389 82.752C178.821 82.4 179.037 81.976 179.037 81.48C179.037 80.456 178.397 79.944 177.117 79.944ZM177.765 73.464H175.965L175.341 77.04H177.117C178.653 77.04 179.421 76.368 179.421 75.024C179.421 74.56 179.277 74.184 178.989 73.896C178.717 73.608 178.309 73.464 177.765 73.464ZM192.41 69.72L189.386 87H185.042L188.09 69.72H192.41ZM203.72 87H192.776L195.824 69.72H200.144L197.768 83.256H204.392L203.72 87ZM214.98 69.552C218.836 69.552 220.764 71.128 220.764 74.28C220.764 74.808 220.708 75.376 220.596 75.984L219.756 80.784C219.372 83.008 218.54 84.656 217.26 85.728C215.98 86.8 214.18 87.336 211.86 87.336C209.54 87.336 207.924 86.8 207.012 85.728C206.388 84.992 206.076 83.976 206.076 82.68C206.076 82.104 206.14 81.472 206.268 80.784L207.108 75.984C207.86 71.696 210.484 69.552 214.98 69.552ZM212.508 83.616C213.308 83.616 213.948 83.408 214.428 82.992C214.908 82.576 215.244 81.808 215.436 80.688L216.252 76.08C216.3 75.76 216.324 75.472 216.324 75.216C216.324 73.92 215.668 73.272 214.356 73.272C212.708 73.304 211.724 74.24 211.404 76.08L210.588 80.688C210.524 81.088 210.492 81.504 210.492 81.936C210.492 83.056 211.164 83.616 212.508 83.616ZM237.089 69.72L236.681 82.8H237.233L241.409 69.72H246.113L240.185 87H232.985L233.633 75.936L230.417 87H223.217L223.385 69.72H228.089L227.657 82.8H228.209L232.409 69.72H237.089Z" fill="white"/>
<path d="M26 74C28.0505 93.6462 44.4593 109 64.3383 109C69.7349 109.006 75.072 107.854 80 105.62C71.1712 101.942 61.5867 97.1264 52.0087 91.5211C42.6498 86.0494 33.6326 79.9613 26 74Z" fill="white"/>
<path d="M115.824 89.0594C113.981 86.3983 111.488 83.4595 108.453 80.3538C107.874 83.0905 107.076 85.7673 106.068 88.3535C112.295 95.2945 113.266 99.0214 113.043 99.7532C112.609 100.278 109.346 101.374 100.435 98.9226C99.1591 98.5713 97.7629 98.143 96.2467 97.638C95.2696 97.3117 94.2731 96.9595 93.257 96.5815C94.8531 94.5948 96.2716 92.448 97.4933 90.1699C97.5302 90.1017 97.5692 90.0335 97.6061 89.9629C100.917 83.7091 102.659 76.6229 102.66 69.4105C102.661 67.9173 102.588 66.425 102.443 64.9401C100.368 44.1948 84.1447 28 64.5022 28C56.1678 27.9949 48.0628 30.9619 41.4342 36.4445C37.4165 39.763 34.0402 43.9076 31.498 48.6418C31.4633 48.71 31.4243 48.7782 31.3874 48.8465C30.1792 51.1308 29.1751 53.5354 28.389 56.0274C27.5811 55.2635 26.8013 54.5051 26.0497 53.7522C24.8811 52.5758 23.8448 51.4864 22.9234 50.4582C16.5125 43.3384 15.7493 39.7267 15.9509 39.0585C16.4192 38.4868 19.8751 37.5197 28.5538 39.8938C30.1211 37.6537 31.8619 35.563 33.7571 33.6445C29.6682 32.3246 25.9977 31.4446 22.906 31.0564C16.2436 30.2282 11.8837 31.6517 9.94329 35.2939C9.24084 36.6068 8.56658 38.8444 9.35358 42.0231C10.5178 46.743 14.6675 52.4699 20.5407 58.4697C22.4117 60.3826 24.4562 62.3213 26.6372 64.2672C28.2243 65.6789 29.8893 67.1047 31.6021 68.5212C32.7454 69.4623 33.9125 70.4035 35.1035 71.3446C36.2944 72.2858 37.5013 73.2097 38.7241 74.1163C44.2331 78.2597 50.0543 82.2384 55.7628 85.8077C57.8354 87.1034 59.9052 88.3582 61.9721 89.5723C64.0389 90.7864 66.0892 91.9479 68.1228 93.0569C72.8708 95.6451 77.5213 97.9791 81.968 99.9814C83.8744 100.841 85.7396 101.638 87.5637 102.372C90.1415 103.412 92.6304 104.327 95.0022 105.099L95.2407 105.177C100.819 106.979 105.522 107.927 109.22 108H109.598C114.289 108 117.468 106.499 119.046 103.53C121.017 99.8544 119.93 94.9839 115.824 89.0594Z" fill="white"/>
</svg>
